<svg xmlns="http://www.w3.org/2000/svg" width="1024" height="1024" viewBox="0 0 1024 1024" version="1.1"><path d="M 121.453 105.046 C 115.418 107.369, 108.904 113.532, 105.776 119.880 L 103.500 124.500 103.236 227.950 C 102.937 345.199, 102.383 336.881, 111.137 346.459 C 120.526 356.732, 111.439 356, 229.500 356 C 347.535 356, 338.478 356.728, 347.841 346.483 C 356.569 336.934, 356 345.094, 356 229.500 C 356 113.906, 356.569 122.066, 347.841 112.517 C 338.472 102.265, 347.585 102.992, 229.212 103.052 C 129.991 103.102, 126.328 103.170, 121.453 105.046 M 681.123 385.991 C 677.147 386.943, 673.428 389.547, 670.562 393.385 C 667.307 397.745, 667.307 626.255, 670.562 630.615 C 677.030 639.279, 672.467 638.949, 786.250 638.976 L 887 639 887 763 L 887 887 794.533 887 L 702.065 887 701.783 846.592 L 701.500 806.183 698.429 802.342 C 690.165 792.004, 676.181 792.806, 670.299 803.956 L 667.948 808.413 668.224 859.634 C 668.602 929.805, 649.324 920.500, 794.323 920.500 L 910.500 920.500 913.773 918.166 C 921.753 912.474, 921.002 939.934, 921.004 653.610 C 921.005 388.270, 921.132 395.933, 916.683 391.155 C 911.071 385.128, 919.081 385.515, 796.500 385.342 C 734.900 385.255, 682.980 385.547, 681.123 385.991 M 702 512 L 702 605 794.500 605 L 887 605 887 512 L 887 419 794.500 419 L 702 419 702 512" stroke="none" fill="#0f2854" fill-rule="evenodd"/><path d="M 179.326 102.750 C 207.281 102.898, 252.731 102.898, 280.326 102.750 C 307.922 102.602, 285.050 102.481, 229.500 102.481 C 173.950 102.481, 151.372 102.602, 179.326 102.750 M 461.750 102.750 C 489.387 102.898, 534.612 102.898, 562.250 102.750 C 589.887 102.602, 567.275 102.481, 512 102.481 C 456.725 102.481, 434.112 102.602, 461.750 102.750 M 744.826 102.750 C 772.506 102.898, 817.506 102.898, 844.826 102.750 C 872.147 102.602, 849.500 102.481, 794.500 102.481 C 739.500 102.481, 717.147 102.602, 744.826 102.750 M 102.481 229.500 C 102.481 285.600, 102.602 308.403, 102.750 280.174 C 102.897 251.944, 102.897 206.044, 102.750 178.174 C 102.602 150.303, 102.481 173.400, 102.481 229.500 M 356.481 229.500 C 356.481 285.600, 356.602 308.403, 356.750 280.174 C 356.897 251.944, 356.897 206.044, 356.750 178.174 C 356.602 150.303, 356.481 173.400, 356.481 229.500 M 921.481 229.500 C 921.481 285.600, 921.602 308.403, 921.750 280.174 C 921.897 251.944, 921.897 206.044, 921.750 178.174 C 921.602 150.303, 921.481 173.400, 921.481 229.500 M 667.481 229.500 C 667.481 285.050, 667.602 307.922, 667.750 280.326 C 667.898 252.731, 667.898 207.281, 667.750 179.326 C 667.602 151.372, 667.481 173.950, 667.481 229.500 M 179.326 356.750 C 207.281 356.898, 252.731 356.898, 280.326 356.750 C 307.922 356.602, 285.050 356.481, 229.500 356.481 C 173.950 356.481, 151.372 356.602, 179.326 356.750 M 461.750 356.750 C 489.387 356.898, 534.612 356.898, 562.250 356.750 C 589.887 356.602, 567.275 356.481, 512 356.481 C 456.725 356.481, 434.112 356.602, 461.750 356.750 M 744.826 356.750 C 772.506 356.898, 817.506 356.898, 844.826 356.750 C 872.147 356.602, 849.500 356.481, 794.500 356.481 C 739.500 356.481, 717.147 356.602, 744.826 356.750 M 102.481 512 C 102.481 567.825, 102.602 590.662, 102.750 562.750 C 102.897 534.837, 102.897 489.162, 102.750 461.250 C 102.602 433.337, 102.481 456.175, 102.481 512 M 356.481 512 C 356.481 567.825, 356.602 590.662, 356.750 562.750 C 356.897 534.837, 356.897 489.162, 356.750 461.250 C 356.602 433.337, 356.481 456.175, 356.481 512 M 702.480 512 C 702.480 562.875, 702.601 583.688, 702.750 558.250 C 702.898 532.812, 702.898 491.187, 702.750 465.750 C 702.601 440.313, 702.480 461.125, 702.480 512 M 886.480 512 C 886.480 562.875, 886.601 583.688, 886.750 558.250 C 886.898 532.812, 886.898 491.187, 886.750 465.750 C 886.601 440.313, 886.480 461.125, 886.480 512 M 886.246 762.250 L 886 886 794.512 886 L 703.023 886 702.744 847.250 L 702.464 808.500 702.482 847.500 L 702.500 886.500 794.279 886.755 C 867.175 886.958, 886.157 886.752, 886.537 885.755 C 886.799 885.065, 886.897 829.150, 886.753 761.500 L 886.492 638.500 886.246 762.250 M 179.326 667.750 C 207.281 667.898, 252.731 667.898, 280.326 667.750 C 307.922 667.602, 285.050 667.481, 229.500 667.481 C 173.950 667.481, 151.372 667.602, 179.326 667.750 M 402.500 670.378 C 396.378 673.265, 390.781 678.781, 387.767 684.900 L 385.500 689.500 385.500 794.500 L 385.500 899.500 387.767 904.100 C 390.781 910.219, 396.378 915.735, 402.500 918.622 L 407.500 920.980 512 920.980 L 616.500 920.980 621.520 918.643 C 639.707 910.173, 639.087 914.711, 638.768 792.431 L 638.500 689.500 636.233 684.900 C 633.219 678.781, 627.622 673.265, 621.500 670.378 L 616.500 668.020 512 668.020 L 407.500 668.020 402.500 670.378 M 102.481 794.500 C 102.481 850.600, 102.602 873.403, 102.750 845.174 C 102.897 816.944, 102.897 771.044, 102.750 743.174 C 102.602 715.303, 102.481 738.400, 102.481 794.500 M 356.481 794.500 C 356.481 850.600, 356.602 873.403, 356.750 845.174 C 356.897 816.944, 356.897 771.044, 356.750 743.174 C 356.602 715.303, 356.481 738.400, 356.481 794.500 M 179.326 921.750 C 207.281 921.898, 252.731 921.898, 280.326 921.750 C 307.922 921.602, 285.050 921.481, 229.500 921.481 C 173.950 921.481, 151.372 921.602, 179.326 921.750" stroke="none" fill="#bde9f4" fill-rule="evenodd"/><path d="M 404.324 104.638 C 398.318 106.766, 391.563 113.154, 388.306 119.786 L 385.500 125.500 385.500 229.500 L 385.500 333.500 388.306 339.214 C 391.663 346.051, 398.363 352.254, 404.734 354.425 C 411.748 356.815, 612.252 356.815, 619.266 354.425 C 625.637 352.254, 632.337 346.051, 635.694 339.214 L 638.500 333.500 638.500 229.500 L 638.500 125.500 635.694 119.786 C 632.337 112.949, 625.637 106.746, 619.266 104.575 C 612.501 102.270, 410.841 102.328, 404.324 104.638 M 747.674 419.750 C 773.070 419.898, 814.920 419.898, 840.674 419.750 C 866.428 419.601, 845.650 419.480, 794.500 419.480 C 743.350 419.480, 722.278 419.601, 747.674 419.750 M 747.674 604.750 C 773.070 604.898, 814.920 604.898, 840.674 604.750 C 866.428 604.601, 845.650 604.480, 794.500 604.480 C 743.350 604.480, 722.278 604.601, 747.674 604.750 M 123.826 668.970 C 116.186 671.303, 109.864 676.804, 105.404 685 C 103.566 688.379, 103.500 692.165, 103.500 794.500 L 103.500 900.500 105.757 904.723 C 108.635 910.109, 113.891 915.365, 119.277 918.243 L 123.500 920.500 229.500 920.500 L 335.500 920.500 339.715 918.247 C 356.893 909.068, 356.075 915.448, 355.764 793.176 L 355.500 689.500 353.220 684.873 C 350.382 679.112, 345.174 673.671, 339.694 670.742 L 335.500 668.500 231 668.327 C 173.525 668.231, 125.297 668.521, 123.826 668.970" stroke="none" fill="#1d4d8c" fill-rule="evenodd"/><path d="M 687.372 104.212 C 681.375 106.144, 674.715 112.204, 671.265 118.868 L 668 125.175 668 229.500 L 668 333.825 671.265 340.132 C 674.868 347.093, 681.479 352.928, 687.962 354.870 C 693.306 356.472, 895.694 356.472, 901.038 354.870 C 907.521 352.928, 914.132 347.093, 917.735 340.132 L 921 333.825 921 229.500 L 921 125.175 917.735 118.868 C 914.132 111.907, 907.521 106.072, 901.038 104.130 C 896.063 102.639, 692.011 102.717, 687.372 104.212 M 125 385.926 C 116.117 388.671, 107.582 396.268, 104.627 404.059 C 103.081 408.137, 102.966 417.071, 103.222 513.500 L 103.500 618.500 105.665 622.500 C 108.421 627.590, 114.238 633.127, 120 636.144 L 124.500 638.500 229.500 638.500 L 334.500 638.500 339.623 635.797 C 346.005 632.431, 352.356 625.337, 354.425 619.266 C 356.815 612.252, 356.815 411.748, 354.425 404.734 C 352.356 398.663, 346.005 391.569, 339.623 388.203 L 334.500 385.500 231 385.327 C 174.075 385.231, 126.375 385.501, 125 385.926 M 404.424 387.057 C 397.382 389.766, 391.626 395.024, 388.311 401.776 L 385.500 407.500 385.500 512 L 385.500 616.500 388.351 622.307 C 391.490 628.700, 398.325 634.899, 404.736 637.168 C 410.287 639.132, 613.713 639.132, 619.264 637.168 C 625.675 634.899, 632.510 628.700, 635.649 622.307 L 638.500 616.500 638.500 512 L 638.500 407.500 635.689 401.776 C 632.315 394.905, 626.570 389.731, 619.292 387.008 C 611.021 383.913, 412.478 383.959, 404.424 387.057 M 667.482 512 C 667.482 571.675, 667.603 596.087, 667.750 566.250 C 667.897 536.412, 667.897 487.587, 667.750 457.750 C 667.603 427.912, 667.482 452.325, 667.482 512 M 921.481 503 C 921.481 557.175, 921.602 579.337, 921.750 552.250 C 921.898 525.162, 921.898 480.837, 921.750 453.750 C 921.602 426.662, 921.481 448.825, 921.481 503 M 921.486 763 C 921.486 839.175, 921.605 870.337, 921.750 832.250 C 921.895 794.163, 921.895 731.837, 921.750 693.750 C 921.605 655.663, 921.486 686.825, 921.486 763 M 667.462 855.500 C 667.461 881.350, 667.591 892.068, 667.749 879.319 C 667.907 866.569, 667.907 845.419, 667.749 832.319 C 667.591 819.218, 667.462 829.650, 667.462 855.500 M 740.750 921.750 C 771.137 921.897, 820.862 921.897, 851.250 921.750 C 881.637 921.603, 856.775 921.483, 796 921.483 C 735.225 921.483, 710.362 921.603, 740.750 921.750" stroke="none" fill="#4889c4" fill-rule="evenodd"/></svg>