<svg width="1024" height="1024" viewBox="0 0 1024 1024" fill="none" xmlns="http://www.w3.org/2000/svg">
<g filter="url(#filter0_d_2_1186)">
<rect x="89" y="87" width="250" height="250" rx="50" fill="#0F2854"/>
<rect x="89" y="387" width="250" height="250" rx="50" fill="#1C4D8D"/>
<rect x="89" y="687" width="250" height="250" rx="50" fill="#4988C4"/>
<rect x="387" y="87" width="250" height="250" rx="50" fill="#1C4D8D"/>
<rect x="387" y="387" width="250" height="250" rx="50" fill="#4988C4"/>
<rect x="387" y="687" width="250" height="250" rx="50" fill="#1C4D8D"/>
<rect x="685" y="87" width="250" height="250" rx="50" fill="#4988C4"/>
<line x1="720.438" y1="899.444" x2="900.424" y2="901.713" stroke="#0F2854" stroke-width="70" stroke-linecap="round"/>
<line x1="720" y1="421" x2="900" y2="421" stroke="#0F2854" stroke-width="70" stroke-linecap="round"/>
<line x1="720.45" y1="602.455" x2="900.435" y2="604.783" stroke="#0F2854" stroke-width="70" stroke-linecap="round"/>
<line x1="900.128" y1="421.871" x2="901.882" y2="898.872" stroke="#0F2854" stroke-width="70" stroke-linecap="round"/>
<line x1="720" y1="899" x2="720" y2="794" stroke="#0F2854" stroke-width="70" stroke-linecap="round"/>
<line x1="720" y1="422" x2="720" y2="602" stroke="#0F2854" stroke-width="70" stroke-linecap="round"/>
</g>
<defs>
<filter id="filter0_d_2_1186" x="-4" y="0" width="1032" height="1032" filterUnits="userSpaceOnUse" color-interpolation-filters="sRGB">
<feFlood flood-opacity="0" result="BackgroundImageFix"/>
<feColorMatrix in="SourceAlpha" type="matrix" values="0 0 0 0 0 0 0 0 0 0 0 0 0 0 0 0 0 0 127 0" result="hardAlpha"/>
<feOffset dy="4"/>
<feGaussianBlur stdDeviation="2"/>
<feComposite in2="hardAlpha" operator="out"/>
<feColorMatrix type="matrix" values="0 0 0 0 0 0 0 0 0 0 0 0 0 0 0 0 0 0 0.25 0"/>
<feBlend mode="normal" in2="BackgroundImageFix" result="effect1_dropShadow_2_1186"/>
<feBlend mode="normal" in="SourceGraphic" in2="effect1_dropShadow_2_1186" result="shape"/>
</filter>
</defs>
</svg>
